<?xml version="1.0" encoding="UTF-8"?><svg xmlns="http://www.w3.org/2000/svg" xmlns:xlink="http://www.w3.org/1999/xlink" version="1.1" id="Layer_1" x="0px" y="0px" viewBox="0 0 29 29" xml:space="preserve"><style type="text/css">.st0{fill:none;stroke:#000000;stroke-width:2;stroke-miterlimit:10;} .st1{fill:none;stroke:#000000;stroke-width:2;stroke-linecap:round;stroke-linejoin:round;stroke-miterlimit:10;} .st2{fill:none;stroke:#000000;stroke-miterlimit:10;} .st3{fill:none;stroke:#000000;stroke-width:2;stroke-miterlimit:10;stroke-dasharray:1.7411,1.7411;} .st4{fill:none;stroke:#000000;stroke-width:2;stroke-linecap:round;stroke-linejoin:round;stroke-dasharray:2.0261,4.0522;} .st5{fill:#606060;} .st6{stroke:#000000;stroke-miterlimit:10;}</style><path d="M14.5 6a1 1 0 0 1-1-1V2a1 1 0 0 1 2 0v3a1 1 0 0 1-1 1z"/><path d="M14.5 28a1 1 0 0 1-1-1v-3a1 1 0 0 1 2 0v3a1 1 0 0 1-1 1z"/><path d="M27 15.5h-3a1 1 0 0 1 0-2h3a1 1 0 0 1 0 2z"/><path d="M5 15.5H2a1 1 0 0 1 0-2h3a1 1 0 0 1 0 2z"/><path d="M21.217 8.783a.999.999 0 0 1-.707-1.707l2.122-2.122a.999.999 0 1 1 1.414 1.414L21.924 8.49a.997.997 0 0 1-.707.293z"/><path d="M5.661 24.339a.999.999 0 0 1-.707-1.707l2.122-2.122a.999.999 0 1 1 1.414 1.414l-2.122 2.122a.997.997 0 0 1-.707.293z"/><path d="M23.339 24.339a.997.997 0 0 1-.707-.293l-2.122-2.122a.999.999 0 1 1 1.414-1.414l2.122 2.122a.999.999 0 0 1-.707 1.707z"/><path d="M7.783 8.783a.997.997 0 0 1-.707-.293L4.954 6.368a.999.999 0 1 1 1.414-1.414L8.49 7.076a.999.999 0 0 1-.707 1.707z"/><path d="M14.5 20.997a6.48 6.48 0 0 1-4.596-1.901 6.506 6.506 0 0 1 0-9.192 6.508 6.508 0 0 1 9.192 0 6.506 6.506 0 0 1 0 9.192 6.48 6.48 0 0 1-4.596 1.901zm0-10.995a4.483 4.483 0 0 0-3.182 1.316 4.506 4.506 0 0 0 0 6.364 4.504 4.504 0 0 0 6.364 0 4.506 4.506 0 0 0 0-6.364 4.483 4.483 0 0 0-3.182-1.316z"/><metadata><rdf:RDF xmlns:rdf="http://www.w3.org/1999/02/22-rdf-syntax-ns#" xmlns:rdfs="http://www.w3.org/2000/01/rdf-schema#" xmlns:dc="http://purl.org/dc/elements/1.1/"><rdf:Description about="https://iconscout.com/legal#licenses" dc:title="light,brightness,sun,bright" dc:description="light,brightness,sun,bright" dc:publisher="Iconscout" dc:date="2017-10-03" dc:format="image/svg+xml" dc:language="en"><dc:creator><rdf:Bag><rdf:li>Jemis Mali</rdf:li></rdf:Bag></dc:creator></rdf:Description></rdf:RDF></metadata></svg>